<svg width="30" height="36" viewBox="0 0 30 36" fill="none" xmlns="http://www.w3.org/2000/svg">
<path d="M8.75 5.5H21.25V15.3125C21.25 15.7917 21.1458 16.2188 20.9375 16.5938C20.7292 16.9688 20.4375 17.2708 20.0625 17.5L15.625 20.125L16.5 23H21.25L17.375 25.75L18.875 30.5L15 27.5625L11.125 30.5L12.625 25.75L8.75 23H13.5L14.375 20.125L9.9375 17.5C9.5625 17.2708 9.27083 16.9688 9.0625 16.5938C8.85417 16.2188 8.75 15.7917 8.75 15.3125V5.5ZM11.25 8V15.3125L13.75 16.8125V8H11.25ZM18.75 8H16.25V16.8125L18.75 15.3125V8Z" fill="#FBBF24"/>
</svg>
