<svg width="30" height="36" viewBox="0 0 30 36" fill="none" xmlns="http://www.w3.org/2000/svg">
<path d="M7.5 30.5V25.1875C6.6875 24.8333 5.97396 24.3594 5.35938 23.7656C4.74479 23.1719 4.22396 22.5 3.79688 21.75C3.36979 21 3.04688 20.1979 2.82812 19.3438C2.60938 18.4896 2.5 17.625 2.5 16.75C2.5 13.4583 3.66667 10.7604 6 8.65625C8.33333 6.55208 11.3333 5.5 15 5.5C18.6667 5.5 21.6667 6.55208 24 8.65625C26.3333 10.7604 27.5 13.4583 27.5 16.75C27.5 17.625 27.3906 18.4896 27.1719 19.3438C26.9531 20.1979 26.6302 21 26.2031 21.75C25.776 22.5 25.2552 23.1719 24.6406 23.7656C24.026 24.3594 23.3125 24.8333 22.5 25.1875V30.5H7.5ZM10 28H11.25V25.5H13.75V28H16.25V25.5H18.75V28H20V23.5625C20.7917 23.375 21.4948 23.0625 22.1094 22.625C22.724 22.1875 23.2448 21.6667 23.6719 21.0625C24.099 20.4583 24.4271 19.7917 24.6562 19.0625C24.8854 18.3333 25 17.5625 25 16.75C25 14.1458 24.0781 12.0365 22.2344 10.4219C20.3906 8.80729 17.9792 8 15 8C12.0208 8 9.60938 8.80729 7.76562 10.4219C5.92188 12.0365 5 14.1458 5 16.75C5 17.5625 5.11458 18.3333 5.34375 19.0625C5.57292 19.7917 5.90104 20.4583 6.32812 21.0625C6.75521 21.6667 7.28125 22.1875 7.90625 22.625C8.53125 23.0625 9.22917 23.375 10 23.5625V28ZM13.125 21.75H16.875L15 18L13.125 21.75ZM10.625 19.25C11.3125 19.25 11.901 19.0052 12.3906 18.5156C12.8802 18.026 13.125 17.4375 13.125 16.75C13.125 16.0625 12.8802 15.474 12.3906 14.9844C11.901 14.4948 11.3125 14.25 10.625 14.25C9.9375 14.25 9.34896 14.4948 8.85938 14.9844C8.36979 15.474 8.125 16.0625 8.125 16.75C8.125 17.4375 8.36979 18.026 8.85938 18.5156C9.34896 19.0052 9.9375 19.25 10.625 19.25ZM19.375 19.25C20.0625 19.25 20.651 19.0052 21.1406 18.5156C21.6302 18.026 21.875 17.4375 21.875 16.75C21.875 16.0625 21.6302 15.474 21.1406 14.9844C20.651 14.4948 20.0625 14.25 19.375 14.25C18.6875 14.25 18.099 14.4948 17.6094 14.9844C17.1198 15.474 16.875 16.0625 16.875 16.75C16.875 17.4375 17.1198 18.026 17.6094 18.5156C18.099 19.0052 18.6875 19.25 19.375 19.25Z" fill="#F87171"/>
</svg>
